<svg width="35" height="35" viewBox="0 0 35 35" fill="none" xmlns="http://www.w3.org/2000/svg">
<path fill-rule="evenodd" clip-rule="evenodd" d="M17.5 35C7.83453 35 0 27.1655 0 17.5C0 7.83453 7.83453 0 17.5 0C27.1655 0 35 7.83453 35 17.5C35 27.1655 27.1655 35 17.5 35ZM24.6094 20.9497C24.6094 18.1902 22.8856 16.6316 18.853 15.6603V10.8041C20.0998 11.06 21.2931 11.597 22.4602 12.4403L23.9466 10.0384C22.4825 8.96606 20.7628 8.29629 18.9591 8.09594V6.5625H16.6513V8.04453C13.335 8.30047 11.0808 10.1916 11.0808 12.9511C11.0808 15.8386 12.8844 17.2441 16.7573 18.2153V23.2247C15.0325 22.9688 13.6008 22.202 12.0881 21.0263L10.3906 23.3516C12.2076 24.7503 14.3726 25.6256 16.6513 25.8825V28.4375H18.9591V25.9077C22.3278 25.6266 24.6094 23.7606 24.6094 20.9497ZM16.7563 15.1233C14.7142 14.5359 14.2111 13.8458 14.2111 12.7717C14.2111 11.6484 15.0861 10.7537 16.7573 10.6258L16.7563 15.1233ZM21.4791 21.128C21.4791 22.3552 20.5242 23.1984 18.853 23.3264V18.7009C20.9223 19.2894 21.4791 19.9784 21.4791 21.1291V21.128Z" fill="#0B9897"/>
</svg>
