<svg width="35" height="35" viewBox="0 0 35 35" fill="none" xmlns="http://www.w3.org/2000/svg">
<path d="M17.5 0C7.83594 0 0 7.83594 0 17.5C0 27.1641 7.83594 35 17.5 35C27.1641 35 35 27.1641 35 17.5C35 7.83594 27.1641 0 17.5 0ZM19.9805 14.6797C20.1523 14.6797 20.293 14.8203 20.293 14.9922V16.0547C20.293 16.2266 20.1523 16.3672 19.9805 16.3672H14.668C14.6562 16.5391 14.6563 16.7227 14.6563 16.9062V18.3125H19.9766C20.1484 18.3125 20.2891 18.4531 20.2891 18.625V19.6875C20.2891 19.8594 20.1484 20 19.9766 20H14.8789C15.4766 22.4219 17.2734 23.8516 19.9492 23.8516C20.7266 23.8516 21.3984 23.8047 21.9727 23.6914C22.1641 23.6523 22.3438 23.8008 22.3438 23.9961V25.668C22.3438 25.8164 22.2383 25.9414 22.0937 25.9727C21.4727 26.1055 20.7539 26.1719 19.9336 26.1719C15.6445 26.1719 12.7852 23.875 12.1133 20H10.9375C10.7656 20 10.625 19.8594 10.625 19.6875V18.625C10.625 18.4531 10.7656 18.3125 10.9375 18.3125H11.957V16.8711C11.957 16.6992 11.957 16.5273 11.9687 16.3711H10.9375C10.7656 16.3711 10.625 16.2305 10.625 16.0586V14.9961C10.625 14.8242 10.7656 14.6836 10.9375 14.6836H12.1758C12.9453 11.0039 15.7695 8.82812 19.9336 8.82812C20.75 8.82812 21.4727 8.90234 22.0937 9.03906C22.2383 9.07031 22.3398 9.19531 22.3398 9.34375V11.0156H22.3438C22.3438 11.2148 22.1641 11.3594 21.9688 11.3203C21.3945 11.207 20.7266 11.1484 19.9492 11.1484C17.3945 11.1484 15.6367 12.457 14.9648 14.6797H19.9805V14.6797Z" fill="#6B9EFF"/>
</svg>
