<svg width="36" height="36" viewBox="0 0 36 36" fill="none" xmlns="http://www.w3.org/2000/svg">
<path d="M18 36C27.9411 36 36 27.9411 36 18C36 8.05887 27.9411 0 18 0C8.05887 0 0 8.05887 0 18C0 27.9411 8.05887 36 18 36Z" fill="#0052B4"/>
<path d="M17.9999 7.04395L18.5827 8.83755H20.4685L18.9428 9.94603L19.5256 11.7396L17.9999 10.6311L16.4741 11.7396L17.057 9.94603L15.5312 8.83755H17.4171L17.9999 7.04395Z" fill="#FFDA44"/>
<path d="M10.2524 10.2527L11.9328 11.1088L13.2663 9.77539L12.9712 11.638L14.6516 12.4942L12.789 12.7892L12.4939 14.6519L11.6377 12.9715L9.77515 13.2666L11.1086 11.9331L10.2524 10.2527Z" fill="#FFDA44"/>
<path d="M7.04346 18.0009L8.83706 17.4181V15.5322L9.94546 17.058L11.7391 16.4752L10.6305 18.0009L11.7391 19.5266L9.94546 18.9439L8.83706 20.4696V18.5837L7.04346 18.0009Z" fill="#FFDA44"/>
<path d="M10.2524 25.7478L11.1086 24.0673L9.77515 22.7339L11.6378 23.029L12.4938 21.3486L12.789 23.2113L14.6515 23.5063L12.9713 24.3625L13.2663 26.2251L11.9328 24.8916L10.2524 25.7478Z" fill="#FFDA44"/>
<path d="M17.9999 28.9573L17.417 27.1637H15.5312L17.057 26.0552L16.4741 24.2617L17.9999 25.3701L19.5256 24.2617L18.9428 26.0552L20.4685 27.1637H18.5827L17.9999 28.9573Z" fill="#FFDA44"/>
<path d="M25.7474 25.7478L24.067 24.8917L22.7334 26.2252L23.0285 24.3624L21.3483 23.5063L23.2108 23.2113L23.5059 21.3486L24.362 23.029L26.2246 22.7339L24.8911 24.0675L25.7474 25.7478Z" fill="#FFDA44"/>
<path d="M28.9564 18.0009L27.1628 18.5837V20.4696L26.0543 18.9438L24.2609 19.5266L25.3693 18.0009L24.2609 16.4752L26.0544 17.058L27.1628 15.5322V17.4182L28.9564 18.0009Z" fill="#FFDA44"/>
<path d="M25.7474 10.2526L24.8912 11.9331L26.2246 13.2665L24.3619 12.9714L23.5059 14.6518L23.2108 12.7891L21.3483 12.494L23.0285 11.6379L22.7334 9.77539L24.067 11.1088L25.7474 10.2526Z" fill="#FFDA44"/>
</svg>
