<svg width="99" height="26" viewBox="0 0 99 26" fill="none" xmlns="http://www.w3.org/2000/svg">
<path d="M42.2698 19.4999C42.1262 19.4999 42.0087 19.4609 41.9174 19.3829C41.826 19.2919 41.7803 19.1749 41.7803 19.0319V6.33744C41.7803 6.19444 41.826 6.07744 41.9174 5.98644C42.0087 5.89544 42.1262 5.84994 42.2698 5.84994H43.8168C44.091 5.84994 44.2868 5.97344 44.4043 6.22044L48.1837 13.2404L52.0023 6.22044C52.1328 5.97344 52.3287 5.84994 52.5898 5.84994H54.1172C54.2608 5.84994 54.3783 5.89544 54.4697 5.98644C54.5611 6.07744 54.6068 6.19444 54.6068 6.33744V19.0319C54.6068 19.1749 54.5611 19.2919 54.4697 19.3829C54.3783 19.4609 54.2608 19.4999 54.1172 19.4999H52.4723C52.3417 19.4999 52.2308 19.4544 52.1394 19.3634C52.048 19.2724 52.0023 19.1619 52.0023 19.0319V10.5884L49.2608 15.7949C49.091 16.0809 48.8691 16.2239 48.595 16.2239H47.7921C47.5179 16.2239 47.296 16.0809 47.1263 15.7949L44.3847 10.5884V19.0319C44.3847 19.1619 44.339 19.2724 44.2477 19.3634C44.1693 19.4544 44.0584 19.4999 43.9148 19.4999H42.2698Z" fill="white"/>
<path d="M60.3747 19.6949C59.7089 19.6949 59.0953 19.5649 58.534 19.3049C57.9856 19.0319 57.5483 18.6679 57.2219 18.2129C56.9086 17.7579 56.752 17.2574 56.752 16.7114C56.752 15.8274 57.111 15.1124 57.829 14.5664C58.547 14.0204 59.5327 13.6499 60.7859 13.4549L63.4687 13.0649V12.6554C63.4687 12.0834 63.3251 11.6544 63.0379 11.3684C62.7507 11.0824 62.2873 10.9394 61.6476 10.9394C61.2167 10.9394 60.8643 11.0239 60.5901 11.1929C60.329 11.3489 60.1201 11.5049 59.9635 11.6609C59.8068 11.8299 59.7024 11.9404 59.6502 11.9924C59.5979 12.1484 59.5 12.2264 59.3564 12.2264H57.8486C57.7311 12.2264 57.6266 12.1874 57.5352 12.1094C57.4569 12.0314 57.4178 11.9274 57.4178 11.7974C57.4308 11.4724 57.5875 11.1019 57.8877 10.6859C58.2011 10.2699 58.6776 9.91244 59.3172 9.61344C59.9569 9.31444 60.7402 9.16494 61.6671 9.16494C63.2076 9.16494 64.3303 9.50944 65.0353 10.1984C65.7403 10.8874 66.0928 11.7909 66.0928 12.9089V19.0319C66.0928 19.1619 66.0471 19.2724 65.9557 19.3634C65.8774 19.4544 65.7664 19.4999 65.6228 19.4999H64.0366C63.9061 19.4999 63.7951 19.4544 63.7037 19.3634C63.6123 19.2724 63.5666 19.1619 63.5666 19.0319V18.2714C63.2794 18.6874 62.8682 19.0319 62.3329 19.3049C61.8107 19.5649 61.158 19.6949 60.3747 19.6949ZM61.0405 17.8424C61.7585 17.8424 62.346 17.6084 62.8029 17.1404C63.2598 16.6724 63.4883 15.9899 63.4883 15.0929V14.6834L61.5301 14.9954C60.7729 15.1124 60.1985 15.3009 59.8068 15.5609C59.4282 15.8209 59.2389 16.1394 59.2389 16.5164C59.2389 16.9324 59.4152 17.2574 59.7676 17.4914C60.1201 17.7254 60.5444 17.8424 61.0405 17.8424Z" fill="white"/>
<path d="M69.075 19.4999C68.9444 19.4999 68.8334 19.4544 68.7421 19.3634C68.6507 19.2724 68.605 19.1619 68.605 19.0319V9.84744C68.605 9.71744 68.6507 9.60694 68.7421 9.51594C68.8334 9.41194 68.9444 9.35994 69.075 9.35994H70.6611C70.8047 9.35994 70.9222 9.40544 71.0136 9.49644C71.105 9.58744 71.1507 9.70444 71.1507 9.84744V10.6469C71.464 10.2309 71.8557 9.91244 72.3256 9.69144C72.8087 9.47044 73.357 9.35994 73.9706 9.35994H74.7734C74.917 9.35994 75.028 9.40544 75.1063 9.49644C75.1977 9.57444 75.2434 9.68494 75.2434 9.82794V11.2319C75.2434 11.3619 75.1977 11.4724 75.1063 11.5634C75.028 11.6544 74.917 11.6999 74.7734 11.6999H73.246C72.6324 11.6999 72.1494 11.8754 71.7969 12.2264C71.4444 12.5774 71.2682 13.0584 71.2682 13.6694V19.0319C71.2682 19.1619 71.2225 19.2724 71.1311 19.3634C71.0397 19.4544 70.9222 19.4999 70.7786 19.4999H69.075Z" fill="white"/>
<path d="M80.3739 19.4999C80.178 19.4999 80.0279 19.4609 79.9235 19.3829C79.819 19.2919 79.7342 19.1684 79.6689 19.0124L76.007 9.96444L75.9678 9.78894C75.9678 9.67194 76.007 9.57444 76.0853 9.49644C76.1767 9.40544 76.2811 9.35994 76.3986 9.35994H77.9848C78.2328 9.35994 78.4026 9.48344 78.4939 9.73044L81.0984 16.5749L83.7029 9.73044C83.742 9.63944 83.8008 9.55494 83.8791 9.47694C83.9705 9.39894 84.0815 9.35994 84.212 9.35994H85.8178C85.9222 9.35994 86.0136 9.40544 86.0919 9.49644C86.1833 9.57444 86.229 9.67194 86.229 9.78894C86.229 9.86694 86.2225 9.92544 86.2094 9.96444L82.5279 19.0124C82.4627 19.1684 82.3778 19.2919 82.2733 19.3829C82.1689 19.4609 82.0188 19.4999 81.823 19.4999H80.3739Z" fill="white"/>
<path d="M88.5048 19.4999C88.3743 19.4999 88.2633 19.4544 88.1719 19.3634C88.0806 19.2724 88.0349 19.1619 88.0349 19.0319V6.12294C88.0349 5.97994 88.0806 5.86944 88.1719 5.79144C88.2633 5.70044 88.3743 5.65494 88.5048 5.65494H90.1302C90.2738 5.65494 90.3848 5.70044 90.4631 5.79144C90.5545 5.86944 90.6002 5.97994 90.6002 6.12294V19.0319C90.6002 19.1619 90.5545 19.2724 90.4631 19.3634C90.3848 19.4544 90.2738 19.4999 90.1302 19.4999H88.5048Z" fill="white"/>
<path d="M93.5894 7.68294C93.4588 7.68294 93.3479 7.63744 93.2565 7.54644C93.1651 7.45544 93.1194 7.34494 93.1194 7.21494V5.81094C93.1194 5.68094 93.1651 5.57044 93.2565 5.47944C93.3479 5.38844 93.4588 5.34294 93.5894 5.34294H95.3714C95.5019 5.34294 95.6129 5.38844 95.7043 5.47944C95.8087 5.57044 95.861 5.68094 95.861 5.81094V7.21494C95.861 7.34494 95.8153 7.45544 95.7239 7.54644C95.6325 7.63744 95.515 7.68294 95.3714 7.68294H93.5894ZM93.6677 19.4999C93.5372 19.4999 93.4262 19.4544 93.3348 19.3634C93.2434 19.2724 93.1977 19.1619 93.1977 19.0319V9.82794C93.1977 9.69794 93.2434 9.58744 93.3348 9.49644C93.4262 9.40544 93.5372 9.35994 93.6677 9.35994H95.2931C95.4367 9.35994 95.5476 9.40544 95.626 9.49644C95.7174 9.57444 95.763 9.68494 95.763 9.82794V19.0319C95.763 19.1619 95.7174 19.2724 95.626 19.3634C95.5476 19.4544 95.4367 19.4999 95.2931 19.4999H93.6677Z" fill="white"/>
<rect width="18.1309" height="6.94078" rx="3.47039" transform="matrix(0.424084 0.905623 -0.906988 0.421156 20.5967 3.25)" fill="url(#paint0_linear)"/>
<rect width="18.1306" height="6.94078" rx="3.47039" transform="matrix(0.424084 -0.905623 0.906989 0.421156 0 19.6802)" fill="url(#paint1_linear)"/>
<rect width="18.1309" height="6.94078" rx="3.47039" transform="matrix(0.424084 0.905623 -0.906988 0.421156 11.0559 3.25)" fill="url(#paint2_linear)"/>
<rect width="18.1306" height="6.94078" rx="3.47039" transform="matrix(0.424084 -0.905623 0.906989 0.421156 9.53271 19.6802)" fill="url(#paint3_linear)"/>
<defs>
<linearGradient id="paint0_linear" x1="17.9421" y1="3.21825" x2="7.97307" y2="3.7519" gradientUnits="userSpaceOnUse">
<stop stop-color="#27ECB9"/>
<stop offset="1" stop-color="#26DAAD"/>
</linearGradient>
<linearGradient id="paint1_linear" x1="0.437965" y1="2.33611" x2="11.7197" y2="2.90553" gradientUnits="userSpaceOnUse">
<stop stop-color="#108181"/>
<stop offset="1" stop-color="#0E7373"/>
</linearGradient>
<linearGradient id="paint2_linear" x1="0.144644" y1="3.86894" x2="10.8943" y2="3.05199" gradientUnits="userSpaceOnUse">
<stop stop-color="#07A3A3"/>
<stop offset="1" stop-color="#0B9897"/>
</linearGradient>
<linearGradient id="paint3_linear" x1="0.11008" y1="3.02438" x2="17.6715" y2="4.55099" gradientUnits="userSpaceOnUse">
<stop stop-color="#0FC1AB"/>
<stop offset="1" stop-color="#14BEA9"/>
</linearGradient>
</defs>
</svg>
