<svg width="32" height="21" viewBox="0 0 32 21" fill="none" xmlns="http://www.w3.org/2000/svg">
<path d="M20.2222 3.62402H11.7808V17.1739H20.2222V3.62402Z" fill="#FF5F00"/>
<path d="M12.6497 10.3998C12.6486 9.09505 12.9496 7.80717 13.5297 6.63362C14.1099 5.46007 14.9541 4.43159 15.9985 3.62603C14.705 2.62701 13.1516 2.00578 11.5159 1.83334C9.88021 1.6609 8.22812 1.9442 6.74848 2.65087C5.26885 3.35754 4.02136 4.45907 3.14859 5.82956C2.27582 7.20005 1.81299 8.78421 1.81299 10.401C1.81299 12.0178 2.27582 13.6019 3.14859 14.9724C4.02136 16.3429 5.26885 17.4444 6.74848 18.1511C8.22812 18.8578 9.88021 19.1411 11.5159 18.9686C13.1516 18.7962 14.705 18.175 15.9985 17.1759C14.9538 16.3701 14.1094 15.3413 13.5292 14.1673C12.949 12.9933 12.6482 11.7049 12.6497 10.3998Z" fill="#EB001B"/>
<path d="M29.3477 15.7399V15.4622H29.4695V15.4048H29.1797V15.4622H29.2942V15.7399H29.3477ZM29.9103 15.7399V15.4048H29.8227L29.7204 15.6441L29.6181 15.4048H29.5304V15.7399H29.5937V15.4862L29.6887 15.704H29.7545L29.8494 15.4862V15.7399H29.9103Z" fill="#F79E1B"/>
<path d="M30.1858 10.3998C30.1858 12.0167 29.7228 13.6009 28.8499 14.9714C27.977 16.342 26.7293 17.4435 25.2495 18.1501C23.7696 18.8566 22.1174 19.1398 20.4816 18.9671C18.8458 18.7944 17.2924 18.1729 15.999 17.1735C17.0429 16.3672 17.8869 15.3385 18.4672 14.1649C19.0476 12.9912 19.3491 11.7034 19.3491 10.3986C19.3491 9.0937 19.0476 7.80588 18.4672 6.63226C17.8869 5.45865 17.0429 4.42989 15.999 3.6236C17.2924 2.62427 18.8458 2.00274 20.4816 1.83005C22.1174 1.65736 23.7696 1.94049 25.2495 2.64706C26.7293 3.35363 27.977 4.45514 28.8499 5.82567C29.7228 7.19621 30.1858 8.78047 30.1858 10.3974V10.3998Z" fill="#F79E1B"/>
</svg>
