<svg width="35" height="35" viewBox="0 0 35 35" fill="none" xmlns="http://www.w3.org/2000/svg">
<path fill-rule="evenodd" clip-rule="evenodd" d="M17.5 35C7.83453 35 0 27.1655 0 17.5C0 7.83453 7.83453 0 17.5 0C27.1655 0 35 7.83453 35 17.5C35 27.1655 27.1655 35 17.5 35ZM11.4844 16.6666V18.6441H13.4137V21.4966H11.4844V23.3614H13.4137V27.3438H15.5881V23.3614H19.9631V21.4966H15.5881V18.6441H18.3323C19.1684 18.6511 20.001 18.5369 20.8042 18.305C21.5655 18.0786 22.2261 17.7362 22.7883 17.2736C23.3505 16.8131 23.7945 16.2345 24.1205 15.5367C24.4464 14.84 24.6094 14.0208 24.6094 13.0791C24.6094 12.1384 24.4562 11.3291 24.1478 10.6509C23.8394 9.97281 23.4139 9.41172 22.8703 8.96984C22.3267 8.52797 21.6748 8.19766 20.9136 7.98109C20.0905 7.75638 19.2402 7.64705 18.387 7.65625H13.4137V16.6666H11.4844ZM18.3859 16.6666H15.5881V9.63375H18.387C19.6361 9.63375 20.6194 9.90719 21.3347 10.453C22.05 10.9987 22.4088 11.8748 22.4088 13.0791C22.4088 14.2844 22.05 15.1834 21.3347 15.7773C20.6194 16.3702 19.6361 16.6666 18.387 16.6666H18.3859Z" fill="#D93232"/>
</svg>
